<svg width="96.000000pt" height="96.000000pt" viewBox="0 0 96.000000 96.000000" xmlns="http://www.w3.org/2000/svg">
  <g transform="translate(0.000000,96.000000) scale(0.100000,-0.100000)" fill="#fefefe" stroke="none">
    <path d="M0 480 l0 -480 480 0 480 0 0 480 0 480 -480 0 -480 0 0 -480z m713
444 c3 -4 -34 -87 -84 -185 -49 -98 -89 -186 -89 -194 l0 -15 90 0 90 0 0 -10
c0 -11 -357 -460 -365 -460 -3 0 -3 6 0 12 16 48 105 347 105 352 0 3 -40 6
-90 6 l-90 0 0 14 c0 15 136 462 145 477 l6 9 138 0 c76 0 140 -3 144 -6z" />
  </g>
  <g transform="translate(0.000000,96.000000) scale(0.100000,-0.100000)" fill="#fddb00" stroke="none">
    <path d="M416 931 c-7 -11 -46 -133 -46 -143 0 -5 67 -8 148 -8 l148 0 33 69
c19 38 31 74 27 80 l-7 11 -149 0 -149 0 -5 -9z" />
  </g>
  <g transform="translate(0.000000,96.000000) scale(0.100000,-0.100000)" fill="#f9c300" stroke="none">
    <path d="M285 518 c-8 -28 -15 -55 -15 -60 0 -4 94 -8 209 -8 l209 0 27 31
c14 17 24 37 22 43 l-4 11 -91 3 -92 3 0 14 0 15 -125 0 -124 0 -16 -52z" />
  </g>
  <g transform="translate(0.000000,96.000000) scale(0.100000,-0.100000)" fill="#facb00" stroke="none">
    <path d="M320 631 c-11 -37 -20 -70 -20 -72 0 -2 57 -3 127 -2 l127 2 33 63
c17 35 32 66 33 71 0 4 -63 7 -140 7 l-139 0 -21 -69z" />
  </g>
  <g transform="translate(0.000000,96.000000) scale(0.100000,-0.100000)" fill="#f8bc00" stroke="none">
    <path d="M270 443 l0 -23 91 0 c49 0 88 -3 86 -7 -3 -5 -12 -32 -20 -60 l-16
-53 15 0 c7 0 14 7 14 16 l0 16 75 -3 75 -4 50 62 c28 34 50 64 50 67 0 3 -95
7 -210 8 l-210 3 0 -22z" />
  </g>
  <g transform="translate(0.000000,96.000000) scale(0.100000,-0.100000)" fill="#fcd300" stroke="none">
    <path d="M355 743 c-8 -28 -15 -53 -15 -55 0 -1 62 -3 137 -3 l138 0 27 50
c15 28 27 52 28 55 0 3 -68 5 -150 5 l-150 0 -15 -52z" />
  </g>
  <g transform="translate(0.000000,96.000000) scale(0.100000,-0.100000)" fill="#f6b300" stroke="none">
    <path d="M424 328 c2 -10 1 -18 -4 -18 -4 0 -11 -10 -14 -22 -3 -13 -12 -44
-20 -70 l-15 -48 14 0 c8 0 15 7 15 15 l0 15 45 0 44 0 50 62 c28 34 47 66 43
69 -4 4 -42 9 -85 11 l-78 3 5 -17z" />
  </g>
  <g transform="translate(0.000000,96.000000) scale(0.100000,-0.100000)" fill="#f5ab00" stroke="none">
    <path d="M383 198 c3 -9 1 -18 -3 -20 -4 -2 -17 -33 -28 -71 l-20 -67 10 -6
c5 -3 10 -4 12 -3 1 2 32 41 69 85 37 45 67 84 67 87 0 3 -25 7 -56 9 l-55 3
4 -17z" />
  </g>
  <g transform="translate(0.000000,96.000000) scale(0.100000,-0.100000)" fill="#fdf1bf" stroke="none">
    <path d="M715 929 l6 -17 -91 -182 c-50 -100 -90 -184 -88 -186 2 -2 46 82 98
186 l94 190 -12 12 -13 13 6 -16z" />
    <path d="M385 839 c-4 -6 -5 -12 -2 -15 2 -3 7 2 10 11 7 17 1 20 -8 4z" />
    <path d="M345 709 c-4 -6 -5 -12 -2 -15 2 -3 7 2 10 11 7 17 1 20 -8 4z" />
    <path d="M305 579 c-4 -6 -5 -12 -2 -15 2 -3 7 2 10 11 7 17 1 20 -8 4z" />
    <path d="M726 527 c3 -10 9 -15 12 -12 3 3 0 11 -7 18 l-12 12 7 -18z" />
    <path d="M445 409 c-4 -6 -5 -12 -2 -15 2 -3 7 2 10 11 7 17 1 20 -8 4z" />
    <path d="M586 334 l-6 -17 15 13 c17 14 19 20 6 20 -5 0 -12 -7 -15 -16z" />
    <path d="M546 284 l-6 -17 15 13 c17 14 19 20 6 20 -5 0 -12 -7 -15 -16z" />
    <path d="M405 279 c-4 -6 -5 -12 -2 -15 2 -3 7 2 10 11 7 17 1 20 -8 4z" />
    <path d="M506 234 l-6 -17 15 13 c17 14 19 20 6 20 -5 0 -12 -7 -15 -16z" />
    <path d="M466 184 l-6 -17 15 13 c17 14 19 20 6 20 -5 0 -12 -7 -15 -16z" />
    <path d="M365 149 c-4 -6 -5 -12 -2 -15 2 -3 7 2 10 11 7 17 1 20 -8 4z" />
    <path d="M335 40 c3 -5 8 -10 11 -10 3 0 2 5 -1 10 -3 6 -8 10 -11 10 -3 0 -2
-4 1 -10z" />
  </g>
  <g transform="translate(0.000000,96.000000) scale(0.100000,-0.100000)" fill="#fdf4d7" stroke="none">
    <path d="M410 919 c-16 -30 -8 -31 13 -3 10 13 13 24 8 24 -6 0 -15 -9 -21
-21z" />
    <path d="M369 794 c-5 -15 -8 -29 -5 -31 2 -2 8 10 14 26 13 38 5 41 -9 5z" />
    <path d="M329 664 c-5 -15 -8 -29 -5 -31 2 -2 8 10 14 26 13 38 5 41 -9 5z" />
    <path d="M289 534 c-5 -15 -8 -29 -5 -31 2 -2 8 10 14 26 13 38 5 41 -9 5z" />
    <path d="M717 503 c-4 -3 -7 -11 -7 -17 l0 -10 12 12 c6 6 9 14 7 17 -3 3 -9
2 -12 -2z" />
    <path d="M677 453 c-4 -3 -7 -11 -7 -17 l0 -10 12 12 c6 6 9 14 7 17 -3 3 -9
2 -12 -2z" />
    <path d="M270 430 c0 -5 5 -10 11 -10 5 0 7 5 4 10 -3 6 -8 10 -11 10 -2 0 -4
-4 -4 -10z" />
    <path d="M637 403 c-4 -3 -7 -11 -7 -17 l0 -10 12 12 c6 6 9 14 7 17 -3 3 -9
2 -12 -2z" />
    <path d="M429 364 c-5 -15 -8 -29 -5 -31 2 -2 8 10 14 26 13 38 5 41 -9 5z" />
    <path d="M595 350 c-3 -5 -1 -10 4 -10 6 0 11 5 11 10 0 6 -2 10 -4 10 -3 0
-8 -4 -11 -10z" />
    <path d="M555 300 c-3 -5 -1 -10 4 -10 6 0 11 5 11 10 0 6 -2 10 -4 10 -3 0
-8 -4 -11 -10z" />
    <path d="M389 234 c-5 -15 -8 -29 -5 -31 2 -2 8 10 14 26 13 38 5 41 -9 5z" />
    <path d="M515 250 c-3 -5 -1 -10 4 -10 6 0 11 5 11 10 0 6 -2 10 -4 10 -3 0
-8 -4 -11 -10z" />
    <path d="M475 200 c-3 -5 -1 -10 4 -10 6 0 11 5 11 10 0 6 -2 10 -4 10 -3 0
-8 -4 -11 -10z" />
    <path d="M430 138 l-12 -23 18 17 c10 10 15 20 12 24 -4 3 -12 -5 -18 -18z" />
    <path d="M355 119 c-4 -6 -5 -12 -2 -15 2 -3 7 2 10 11 7 17 1 20 -8 4z" />
    <path d="M386 83 l-7 -18 12 12 c7 7 10 15 7 18 -3 3 -9 -2 -12 -12z" />
    <path d="M345 40 c-3 -5 -1 -10 4 -10 6 0 11 5 11 10 0 6 -2 10 -4 10 -3 0 -8
-4 -11 -10z" />
  </g>
  <g transform="translate(0.000000,96.000000) scale(0.100000,-0.100000)" fill="#fcdc3f" stroke="none">
    <path d="M370 790 c0 -7 3 -10 7 -7 3 4 3 10 0 14 -4 3 -7 0 -7 -7z" />
    <path d="M330 660 c0 -7 3 -10 7 -7 3 4 3 10 0 14 -4 3 -7 0 -7 -7z" />
    <path d="M290 530 c0 -7 3 -10 7 -7 3 4 3 10 0 14 -4 3 -7 0 -7 -7z" />
  </g>
  <g transform="translate(0.000000,96.000000) scale(0.100000,-0.100000)" fill="#fce285" stroke="none">
    <path d="M380 820 c0 -7 3 -10 7 -7 3 4 3 10 0 14 -4 3 -7 0 -7 -7z" />
    <path d="M340 690 c0 -7 3 -10 7 -7 3 4 3 10 0 14 -4 3 -7 0 -7 -7z" />
    <path d="M713 533 c4 -3 10 -3 14 0 3 4 0 7 -7 7 -7 0 -10 -3 -7 -7z" />
    <path d="M699 473 l-14 -18 18 14 c16 13 21 21 13 21 -2 0 -10 -8 -17 -17z" />
    <path d="M659 423 l-14 -18 18 14 c16 13 21 21 13 21 -2 0 -10 -8 -17 -17z" />
    <path d="M619 373 l-14 -18 18 14 c16 13 21 21 13 21 -2 0 -10 -8 -17 -17z" />
    <path d="M430 360 c0 -7 3 -10 7 -7 3 4 3 10 0 14 -4 3 -7 0 -7 -7z" />
    <path d="M390 230 c0 -7 3 -10 7 -7 3 4 3 10 0 14 -4 3 -7 0 -7 -7z" />
    <path d="M350 100 c0 -7 3 -10 7 -7 3 4 3 10 0 14 -4 3 -7 0 -7 -7z" />
  </g>
  <g transform="translate(0.000000,96.000000) scale(0.100000,-0.100000)" fill="#fce59b" stroke="none">
    <path d="M703 933 c4 -3 10 -3 14 0 3 4 0 7 -7 7 -7 0 -10 -3 -7 -7z" />
    <path d="M400 890 c0 -7 3 -10 7 -7 3 4 3 10 0 14 -4 3 -7 0 -7 -7z" />
    <path d="M360 760 c0 -7 3 -10 7 -7 3 4 3 10 0 14 -4 3 -7 0 -7 -7z" />
    <path d="M320 630 c0 -7 3 -10 7 -7 3 4 3 10 0 14 -4 3 -7 0 -7 -7z" />
    <path d="M280 500 c0 -7 3 -10 7 -7 3 4 3 10 0 14 -4 3 -7 0 -7 -7z" />
    <path d="M420 330 c0 -7 3 -10 7 -7 3 4 3 10 0 14 -4 3 -7 0 -7 -7z" />
    <path d="M574 318 l-7 -11 11 7 c12 7 16 16 8 16 -3 0 -8 -5 -12 -12z" />
    <path d="M534 268 l-7 -11 11 7 c12 7 16 16 8 16 -3 0 -8 -5 -12 -12z" />
    <path d="M494 218 l-7 -11 11 7 c12 7 16 16 8 16 -3 0 -8 -5 -12 -12z" />
    <path d="M380 200 c0 -7 3 -10 7 -7 3 4 3 10 0 14 -4 3 -7 0 -7 -7z" />
    <path d="M454 168 l-7 -11 11 7 c12 7 16 16 8 16 -3 0 -8 -5 -12 -12z" />
    <path d="M414 118 l-7 -11 11 7 c12 7 16 16 8 16 -3 0 -8 -5 -12 -12z" />
    <path d="M340 70 c0 -7 3 -10 7 -7 3 4 3 10 0 14 -4 3 -7 0 -7 -7z" />
  </g>
  <g transform="translate(0.000000,96.000000) scale(0.100000,-0.100000)" fill="#fcecb1" stroke="none">
    <path d="M395 869 c-4 -6 -5 -12 -2 -15 2 -3 7 2 10 11 7 17 1 20 -8 4z" />
    <path d="M350 730 c0 -7 3 -10 7 -7 3 4 3 10 0 14 -4 3 -7 0 -7 -7z" />
    <path d="M310 600 c0 -7 3 -10 7 -7 3 4 3 10 0 14 -4 3 -7 0 -7 -7z" />
    <path d="M720 505 c-7 -9 -11 -17 -9 -20 3 -2 10 5 17 15 14 24 10 26 -8 5z" />
    <path d="M275 479 c-4 -6 -5 -12 -2 -15 2 -3 7 2 10 11 7 17 1 20 -8 4z" />
    <path d="M670 440 c0 -7 3 -10 7 -7 3 4 3 10 0 14 -4 3 -7 0 -7 -7z" />
    <path d="M630 390 c0 -7 3 -10 7 -7 3 4 3 10 0 14 -4 3 -7 0 -7 -7z" />
    <path d="M410 300 c0 -7 3 -10 7 -7 3 4 3 10 0 14 -4 3 -7 0 -7 -7z" />
    <path d="M370 170 c0 -7 3 -10 7 -7 3 4 3 10 0 14 -4 3 -7 0 -7 -7z" />
    <path d="M374 68 l-7 -11 11 7 c7 4 12 9 12 12 0 8 -9 4 -16 -8z" />
  </g>
  <g transform="translate(0.000000,96.000000) scale(0.100000,-0.100000)" fill="#f8c533" stroke="none">
    <path d="M679 453 l-14 -18 18 14 c16 13 21 21 13 21 -2 0 -10 -8 -17 -17z" />
    <path d="M275 430 c3 -5 8 -10 11 -10 3 0 2 5 -1 10 -3 6 -8 10 -11 10 -3 0
-2 -4 1 -10z" />
    <path d="M639 403 l-14 -18 18 14 c9 7 17 15 17 17 0 8 -8 3 -21 -13z" />
    <path d="M599 353 l-14 -18 18 14 c9 7 17 15 17 17 0 8 -8 3 -21 -13z" />
    <path d="M559 303 l-14 -18 18 14 c16 13 21 21 13 21 -2 0 -10 -8 -17 -17z" />
    <path d="M519 253 l-14 -18 18 14 c9 7 17 15 17 17 0 8 -8 3 -21 -13z" />
    <path d="M479 203 l-14 -18 18 14 c16 13 21 21 13 21 -2 0 -10 -8 -17 -17z" />
  </g>
  <g transform="translate(0.000000,96.000000) scale(0.100000,-0.100000)" fill="#f6b71d" stroke="none">
    <path d="M410 290 c0 -7 3 -10 7 -7 3 4 3 10 0 14 -4 3 -7 0 -7 -7z" />
    <path d="M400 260 c0 -7 3 -10 7 -7 3 4 3 10 0 14 -4 3 -7 0 -7 -7z" />
    <path d="M370 160 c0 -7 3 -10 7 -7 3 4 3 10 0 14 -4 3 -7 0 -7 -7z" />
    <path d="M434 148 l-7 -11 11 7 c7 4 12 9 12 12 0 8 -9 4 -16 -8z" />
    <path d="M360 130 c0 -7 3 -10 7 -7 3 4 3 10 0 14 -4 3 -7 0 -7 -7z" />
    <path d="M394 98 l-7 -11 11 7 c7 4 12 9 12 12 0 8 -9 4 -16 -8z" />
    <path d="M349 43 l-14 -18 18 14 c16 13 21 21 13 21 -2 0 -10 -8 -17 -17z" />
  </g>
  <g transform="translate(0.000000,96.000000) scale(0.100000,-0.100000)" fill="#f9d471" stroke="none">
    <path d="M300 560 c0 -7 3 -10 7 -7 3 4 3 10 0 14 -4 3 -7 0 -7 -7z" />
    <path d="M440 390 c0 -7 3 -10 7 -7 3 4 3 10 0 14 -4 3 -7 0 -7 -7z" />
    <path d="M444 158 l-7 -11 11 7 c12 7 16 16 8 16 -3 0 -8 -5 -12 -12z" />
    <path d="M404 108 l-7 -11 11 7 c7 4 12 9 12 12 0 8 -9 4 -16 -8z" />
    <path d="M364 58 l-7 -11 11 7 c12 7 16 16 8 16 -3 0 -8 -5 -12 -12z" />
  </g>
  <g transform="translate(0.000000,96.000000) scale(0.100000,-0.100000)" fill="#fad75f" stroke="none">
    <path d="M390 850 c0 -7 3 -10 7 -7 3 4 3 10 0 14 -4 3 -7 0 -7 -7z" />
    <path d="M350 720 c0 -7 3 -10 7 -7 3 4 3 10 0 14 -4 3 -7 0 -7 -7z" />
    <path d="M310 590 c0 -7 3 -10 7 -7 3 4 3 10 0 14 -4 3 -7 0 -7 -7z" />
    <path d="M270 460 c0 -7 3 -10 7 -7 3 4 3 10 0 14 -4 3 -7 0 -7 -7z" />
  </g>
  <g transform="translate(0.000000,96.000000) scale(0.100000,-0.100000)" fill="#f8c20f" stroke="none">
    <path d="M714 498 l-7 -11 11 7 c7 4 12 9 12 12 0 8 -9 4 -16 -8z" />
    <path d="M280 490 c0 -7 3 -10 7 -7 3 4 3 10 0 14 -4 3 -7 0 -7 -7z" />
  </g>
  <g transform="translate(0.000000,96.000000) scale(0.100000,-0.100000)" fill="#fcdd4f" stroke="none">
    <path d="M419 923 l-14 -18 20 15 c11 8 22 16 24 17 2 2 0 3 -6 3 -6 0 -17 -8
-24 -17z" />
    <path d="M400 880 c0 -7 3 -10 7 -7 3 4 3 10 0 14 -4 3 -7 0 -7 -7z" />
  </g>
  <g transform="translate(0.000000,96.000000) scale(0.100000,-0.100000)" fill="#f7c347" stroke="none" />
  <g transform="translate(0.000000,96.000000) scale(0.100000,-0.100000)" fill="#fddf13" stroke="none" />
  <g transform="translate(0.000000,96.000000) scale(0.100000,-0.100000)" fill="#f9ca21" stroke="none" />
  <g transform="translate(0.000000,96.000000) scale(0.100000,-0.100000)" fill="#fcd821" stroke="none" />
  <g transform="translate(0.000000,96.000000) scale(0.100000,-0.100000)" fill="#fedd09" stroke="none" />
</svg>
